<svg width="1302" height="986" viewBox="0 0 1302 986" fill="none" xmlns="http://www.w3.org/2000/svg">
<path opacity="0.12" d="M1241.1 767H182.621C149.141 767 121.747 783.597 121.747 803.883C121.747 817.93 134.887 830.203 154.082 836.426H60.874C27.394 836.426 0 853.023 0 873.309C0 893.594 27.393 910.192 60.874 910.192H93.352C84.281 916.637 78.778 924.974 78.778 934.057V948.81C78.778 969.095 106.171 985.692 139.652 985.692H1182.38C1215.86 985.692 1243.25 969.095 1243.25 948.81V934.057C1243.25 913.772 1215.86 897.175 1182.38 897.175L1111.48 897.994C1116.88 897.994 1125.65 895.413 1131.53 890.223C1141.85 881.124 1142.3 867.274 1137.26 855.81C1133.99 848.378 1128.75 842.485 1115.78 840.268L1241.1 840.766C1274.58 840.766 1301.98 824.169 1301.98 803.883C1301.98 783.597 1274.58 767 1241.1 767Z" fill="#B1B1B1"/>
<path d="M384.602 223.315L389.683 211.622L385.395 201.229L387.136 199.202L389.718 201.244L388.629 191.599L392.941 185.006L403.415 184.574L412.225 190.874L411.551 201.319L404.642 211.673L398.381 227.981L384.602 223.315Z" fill="#EACDB0"/>
<path d="M382.727 211.801L357.107 290.245L300.351 255.056L277.648 315.218L358.242 357.218L382.079 348.137L406.815 217.965L382.727 211.801Z" fill="#8AAD9F"/>
<path d="M183.938 869.494L182.812 880.598L202.984 894.443L214.759 884.71L205.234 872.236L185.062 858.391L183.938 869.494Z" fill="#514943"/>
<path d="M184.439 530.015L181.023 563.736L211.273 679.594L183.184 865.771L203.86 872.896L258.382 691.132L267.035 638.254L266.72 526.312L184.439 530.015Z" fill="#CAB5A1"/>
<path d="M350.126 558.278L306.635 870.244H286.866L283.308 670.275L247.328 529.918L350.126 558.278Z" fill="#CAB5A1"/>
<path d="M286.977 867.777V878.982L308.355 890.188L319.043 878.982L308.355 867.777H286.977Z" fill="#514943"/>
<path d="M304.33 254.684C302.764 252.124 300.673 249.944 297.803 248.325C278.163 237.241 245.609 247.003 224.297 247.003C217.999 313.314 200.587 376.513 189.341 441.619C177.397 510.766 163.949 579.653 149.009 648.216C148.163 652.099 208.32 650.14 213.994 650.235C271.869 651.211 347.626 651.012 403.47 633.513C367.831 537.836 354.819 434.889 326.754 336.723C321.827 319.489 315.976 302.513 311.539 285.14C308.967 275.068 309.364 262.914 304.33 254.684Z" fill="#8AAD9F"/>
<path d="M276.781 162.273C291.431 166.28 302.964 179.838 304.57 194.94C312.576 187.482 316.663 176.03 315.189 165.188C313.715 154.346 306.718 144.402 297.012 139.352C287.93 144.172 280.887 152.701 277.873 162.531L276.781 162.273Z" fill="#9E6652"/>
<path d="M307.873 176.466C300.303 136.501 250.373 143.407 236.05 175.77C227.905 194.174 236.438 220.226 252.732 233.032C253.082 236.57 253.541 246.331 256.246 248.696C259.175 251.258 268.404 248.816 272.019 247.979C273.022 247.747 274.07 247.459 274.796 246.731C275.706 245.819 275.859 243.377 275.876 240.671C278.531 240.49 281.249 239.973 284.017 239.065C295.63 235.252 304.041 224.501 307.519 212.782C310.997 201.065 310.147 188.475 307.873 176.466Z" fill="#EACDB0"/>
<path d="M234.972 314.654C244.476 314.437 253.96 313.422 263.292 311.599C256.878 312.853 254.75 244.191 254.523 239.441C253.871 225.821 258.738 212.399 265.863 200.773C272.988 189.147 282.308 179.053 291.487 168.969C295.305 164.775 299.255 160.29 300.422 154.74C301.712 148.602 299.257 142.122 295.208 137.331C288.978 129.958 281.585 126.29 272.176 126.066C253.176 125.612 232.949 133.219 220.146 147.513C204.679 164.78 200.257 190.087 199.532 212.605C199.338 218.647 199.498 224.729 198.549 230.699C197.534 237.087 195.274 243.197 193.273 249.348C190.319 258.432 187.89 267.846 188.125 277.396C188.359 286.945 191.526 296.736 198.39 303.38C207.966 312.648 222.213 314.946 234.972 314.654Z" fill="#9E6652"/>
<path d="M934.257 244.07L850.602 373.337L894.452 426.335L907.475 400.551L900.737 342.535L934.257 244.07Z" fill="#F2D263"/>
<path d="M973.31 237.829C981.742 237.463 990.173 237.097 998.605 236.73C999.059 230.016 998.976 223.265 998.356 216.564C998.431 217.378 1011.92 210.264 1013.12 208.65C1016.55 204.005 1016.95 196.202 1018.38 190.676C1021.43 178.903 1024.29 165.647 1018.07 155.199C1011.63 144.378 997.687 140.674 985.098 140.346C969.292 139.933 951.643 144.54 943.515 158.103C936.174 170.353 945.436 188.42 948.08 201.376C949.384 207.763 951.373 215.052 957.308 217.749C960.459 219.181 964.281 219.026 967.094 221.042C972.055 224.597 970.938 232.205 973.31 237.829Z" fill="#EACDB0"/>
<path d="M918.607 134.68C917.667 125.943 916.727 117.206 915.788 108.469C915.439 105.224 915.102 101.857 916.151 98.767C917.896 93.627 923.115 90.417 928.354 88.999C933.593 87.581 939.11 87.528 944.41 86.361C950.067 85.116 955.568 82.595 961.355 82.85C972.361 83.335 980.785 93.543 991.664 95.282C1006.73 97.689 1020.56 90.788 1029.65 108.515C1031.32 111.772 1031.79 115.521 1033.26 118.872C1035.16 123.2 1038.63 126.615 1041.34 130.491C1053.25 147.534 1049.4 173.399 1034.96 187.843C1027.96 194.846 1025.1 201.18 1015.46 203.426C1019.87 194.45 1014.04 158.693 1001.95 154.68C998.748 153.619 989.13 157.536 985.583 158.055C977.726 159.203 970.088 160.463 962.697 163.524C951.727 168.067 939.818 171.288 927.945 172.173C926.426 172.286 924.729 172.343 923.582 171.341C922.503 170.398 922.28 168.833 922.126 167.408C920.954 156.498 919.78 145.589 918.607 134.68Z" fill="#3A3029"/>
<path d="M1111.39 885.498L1114.78 899.741L1089.69 920.766L1072.05 909.913L1082.91 892.279L1108 871.254L1111.39 885.498Z" fill="#3A3029"/>
<path d="M1053.79 444.883L1064.09 488.141L1051.03 689.324L1111.79 880.554L1084.88 892.93L963.144 672.153L948.687 601.628L941.336 452.525L1053.79 444.883Z" fill="#59595B"/>
<path d="M885.161 462.032L883 648.915L918.217 889.874H945.296L962.399 667.538L999.455 445.203L885.161 462.032Z" fill="#59595B"/>
<path d="M945.144 886.652V901.293L915.861 915.935L901.219 901.293L915.861 886.652H945.144Z" fill="#3A3029"/>
<path d="M1086 497.779C1086.37 514.829 1085.84 537.808 1079.29 538.649C1078.06 538.807 1076.88 538.2 1075.81 537.614C1064.48 531.43 1056.47 522.726 1045.3 516.751C1033.6 510.489 1020.21 507.161 1007.09 504.831C987.454 501.244 967.388 499.019 947.386 498.67C931.662 498.396 915.863 499.735 900.205 501.038C887.178 502.122 875.057 505.983 861.786 505.064C848.184 504.121 834.785 499.954 823.158 492.809C822.732 492.547 822.282 492.25 822.105 491.782C821.912 491.271 822.1 490.703 822.287 490.189C825.064 482.575 827.062 475.036 832.107 468.731C837.741 461.69 841.745 452.744 845.818 444.73C854.305 428.027 862.298 410.521 868.23 392.727C877.194 368.54 887.434 344.981 896.099 320.713C902.105 303.893 907.583 286.773 915.732 270.827C922.113 258.341 933.486 240.101 947.185 234.603C951.822 232.742 956.937 232.575 961.931 232.431C977.081 231.996 992.231 231.56 1007.38 231.125C1012.9 230.966 1018.65 230.85 1023.68 233.125C1031.23 236.535 1035.49 244.459 1039.22 251.851C1055.94 284.999 1066.6 320.739 1072.57 357.594C1075.68 376.838 1078.57 396.12 1080.81 415.474C1083.32 437.072 1085.04 458.768 1085.4 480.498C1085.44 482.914 1085.82 489.677 1086 497.779Z" fill="#F2D263"/>
<path d="M984.916 314.935C984.346 323.52 985.57 332.111 986.791 340.63C994.229 392.518 1009.97 454.198 1017.41 506.086C976.732 505.732 925.281 503.035 884.602 502.681C886.075 483.24 890.014 456.35 891.487 436.909C892.431 424.446 893.382 411.939 896.013 399.708C900.257 379.98 908.771 361.41 917.225 343.017C932.846 309.031 948.467 275.045 964.089 241.059C964.924 239.241 965.804 237.364 967.344 236.056C969.188 234.49 971.705 233.964 974.112 233.546C985.741 231.526 998.871 229.817 1010.56 231.532C1013.48 242.17 1002.7 260.664 998.707 270.56C992.895 284.958 985.957 299.252 984.916 314.935Z" fill="white"/>
<path d="M513.938 437.675L515.969 462.327L526.544 461.918L528.89 444.728L533.981 446.856L529.672 425.972L518.622 424.914L513.938 437.675Z" fill="#EBCEB1"/>
<path d="M533.499 432.555C533.499 432.555 511.682 429.334 511.679 429.334C507.186 428.406 508.889 385.747 508.844 381.65C508.615 360.881 506.915 339.469 512.36 319.293C517.577 299.963 524.625 281.128 533.372 263.118C541.045 247.319 547.995 227.514 565.096 220.088C567.227 219.163 569.463 218.411 571.778 218.226C577.833 217.742 583.45 221.112 588.585 224.357C591.523 226.213 594.512 228.113 596.736 230.782C605.379 241.154 595.625 262.387 588.487 271.21C583.899 276.881 579.311 282.552 574.723 288.223C553.157 314.879 550.851 341.278 545.475 374.322C544.753 378.766 538.292 432.869 533.499 432.555Z" fill="#8C9498"/>
<path d="M584.551 203.49C584.122 203.649 583.696 203.811 583.273 203.975C563.021 211.854 547.118 247.205 538.004 267.978C514.479 321.602 504.201 377.481 502.334 436.742C501.328 468.651 501.705 500.614 502.718 532.544C502.998 541.366 510.646 620.342 506.735 622.228C546.85 602.881 587.639 584.606 630.341 573.563C673.044 562.519 717.968 558.89 761.103 568.95C747.984 468.699 728.971 366.697 701.55 269.83C698.27 258.244 696.078 245.893 691.217 234.914C685.618 222.268 677.216 218.534 666.6 211.059C662.963 208.498 659.299 205.922 655.301 204.135C634.226 194.72 605.884 195.584 584.551 203.49Z" fill="#8C9498"/>
<path d="M522.844 519.03L568.818 705.628L569.846 843.168L592.168 847.994L600.891 720.078L622.804 485.82L522.844 519.03Z" fill="#EBCEB1"/>
<path d="M592.453 851.849L596.06 865.8L592.895 893.17L574.806 893.203L568.031 853.638L570.131 847.023L592.453 851.849Z" fill="#514943"/>
<path d="M698.376 498.42L702.431 659.657L680.909 887.383L658.872 888.997L650.954 680.227L606.078 490.965L698.376 498.42Z" fill="#EBCEB1"/>
<path d="M680.218 883.578L709.901 899.339L707.545 913.203L655.109 906.78L657.63 886.827L680.218 883.578Z" fill="#514943"/>
<path d="M704.834 519.222L719.771 705.509L704.575 833.265L644.882 829.884L634.244 684.635L608.43 526.283L612.44 501.629L698.469 502.889L704.834 519.222Z" fill="#9E6652"/>
<path d="M614.332 691.952L607.319 825.571L555.433 822.91L556.49 696.189L523.773 537.05L531.238 492.566L618.502 497.998L614.332 691.952Z" fill="#9E6652"/>
<path d="M735.494 522.548C682.088 530.703 593.219 536.929 539.812 545.084C536.935 448.521 546.442 337.009 569.74 243.563C573.966 226.614 580.208 208.318 595.017 199.685C610.884 190.435 644.536 191.691 654.219 209.659C668.385 235.946 671.182 277.791 677.502 307.046C691.803 373.237 726.636 455.394 735.494 522.548Z" fill="#F1F9F5"/>
<path d="M585.621 131.236C593.573 91.8441 642.818 99.2581 656.585 131.4C665.653 152.572 652.493 183.615 631.18 192.614C632.484 197.998 633.56 203.437 634.398 208.914C628.363 209.252 622.328 209.59 616.293 209.927C614.425 210.031 612.232 209.993 611.115 208.493C610.438 207.584 610.364 206.377 610.316 205.245C610.153 201.429 609.99 197.613 609.826 193.797C609.368 193.661 608.909 193.519 608.448 193.361C597.02 189.456 588.838 178.735 585.541 167.118C582.243 155.5 583.232 143.073 585.621 131.236Z" fill="#EACDB0"/>
<path d="M590.573 142.013C584.339 153.877 588.197 168.248 591.634 180.553C594.682 191.465 595.226 198.408 582.825 199.187C575.838 199.626 563.416 200.546 558.353 194.422C554.521 189.783 559.01 178.131 561.97 173.694C564.231 170.307 568.934 169.168 571.104 165.721C571.998 164.301 572.369 162.619 572.663 160.967C573.864 154.217 574.038 147.285 573.177 140.483C572.592 135.864 571.531 131.248 571.886 126.605C572.401 119.874 578.361 112.908 581.826 107.212C588.272 96.6172 606.736 84.0122 618.652 95.1092C621.365 97.6362 622.577 101.354 623.511 104.942C624.069 107.084 624.569 109.307 624.237 111.496C622.914 120.224 614.719 120.392 608.547 123.639C600.938 127.644 594.552 134.44 590.573 142.013Z" fill="#514943"/>
<path d="M653.486 154.413C652.974 160.662 648.616 166.991 651.157 172.722C652.289 175.276 654.595 177.073 656.452 179.16C661.524 184.86 663.249 193.34 660.806 200.569C673.235 202.115 685.665 203.661 698.094 205.207C699.968 205.44 701.938 205.662 703.691 204.957C707.436 203.451 708.4 198.692 708.829 194.678C709.675 186.774 710.411 178.283 706.538 171.341C704.742 168.122 702.059 165.466 700.274 162.242C691.689 146.733 706.237 124.351 694.931 110.698C689.886 104.606 681.413 102.828 674.69 98.6617C662.966 91.3967 656.836 77.0097 644.666 70.5207C621.681 58.2667 593.243 84.0837 604.118 108.132C612.988 127.743 655.548 129.245 653.486 154.413Z" fill="#514943"/>
<path d="M586.063 206.375C586.063 206.375 569.073 446.144 606.302 493.421C643.531 540.698 659.454 558.512 659.454 558.512L527.597 608.764C527.597 608.764 510.191 272.587 586.063 206.375Z" fill="#8C9498"/>
<path d="M514.348 565.888L359.727 565.359C302.547 565.163 256.351 518.651 256.547 461.471C256.742 404.29 303.255 358.095 360.435 358.29L514.664 358.817L514.348 565.888Z" fill="#F1F1F1"/>
<path d="M519.805 565.904L811.079 566.9C862.136 567.075 903.668 525.826 903.842 474.769L903.918 452.595C904.093 401.538 862.844 360.006 811.787 359.832L520.513 358.836L519.805 565.904Z" fill="#6596C1"/>
<path d="M546.381 484H535.835L551.903 437.455H564.585L580.631 484H570.085L558.426 448.091H558.062L546.381 484ZM545.722 465.705H570.631V473.386H545.722V465.705ZM586.239 484V449.091H595.92V484H586.239ZM591.102 444.591C589.663 444.591 588.428 444.114 587.398 443.159C586.383 442.189 585.875 441.03 585.875 439.682C585.875 438.348 586.383 437.205 587.398 436.25C588.428 435.28 589.663 434.795 591.102 434.795C592.542 434.795 593.769 435.28 594.784 436.25C595.814 437.205 596.33 438.348 596.33 439.682C596.33 441.03 595.814 442.189 594.784 443.159C593.769 444.114 592.542 444.591 591.102 444.591ZM644.926 453.75H634.972C634.79 452.462 634.419 451.318 633.858 450.318C633.297 449.303 632.578 448.439 631.699 447.727C630.82 447.015 629.805 446.47 628.653 446.091C627.517 445.712 626.282 445.523 624.949 445.523C622.54 445.523 620.441 446.121 618.653 447.318C616.866 448.5 615.479 450.227 614.494 452.5C613.509 454.758 613.017 457.5 613.017 460.727C613.017 464.045 613.509 466.833 614.494 469.091C615.494 471.348 616.888 473.053 618.676 474.205C620.464 475.356 622.532 475.932 624.881 475.932C626.199 475.932 627.419 475.758 628.54 475.409C629.676 475.061 630.684 474.553 631.562 473.886C632.441 473.205 633.169 472.379 633.744 471.409C634.335 470.439 634.744 469.333 634.972 468.091L644.926 468.136C644.669 470.273 644.025 472.333 642.994 474.318C641.979 476.288 640.608 478.053 638.881 479.614C637.169 481.159 635.123 482.386 632.744 483.295C630.381 484.189 627.706 484.636 624.722 484.636C620.57 484.636 616.858 483.697 613.585 481.818C610.328 479.939 607.752 477.22 605.858 473.659C603.979 470.098 603.04 465.788 603.04 460.727C603.04 455.652 603.994 451.333 605.903 447.773C607.813 444.212 610.403 441.5 613.676 439.636C616.949 437.758 620.631 436.818 624.722 436.818C627.419 436.818 629.919 437.197 632.222 437.955C634.54 438.712 636.593 439.818 638.381 441.273C640.169 442.712 641.623 444.477 642.744 446.568C643.881 448.659 644.608 451.053 644.926 453.75ZM667.574 484.682C664.044 484.682 660.991 483.932 658.415 482.432C655.854 480.917 653.877 478.811 652.483 476.114C651.089 473.402 650.392 470.258 650.392 466.682C650.392 463.076 651.089 459.924 652.483 457.227C653.877 454.515 655.854 452.409 658.415 450.909C660.991 449.394 664.044 448.636 667.574 448.636C671.104 448.636 674.15 449.394 676.71 450.909C679.286 452.409 681.271 454.515 682.665 457.227C684.059 459.924 684.756 463.076 684.756 466.682C684.756 470.258 684.059 473.402 682.665 476.114C681.271 478.811 679.286 480.917 676.71 482.432C674.15 483.932 671.104 484.682 667.574 484.682ZM667.619 477.182C669.225 477.182 670.566 476.727 671.642 475.818C672.718 474.894 673.528 473.636 674.074 472.045C674.634 470.455 674.915 468.644 674.915 466.614C674.915 464.583 674.634 462.773 674.074 461.182C673.528 459.591 672.718 458.333 671.642 457.409C670.566 456.485 669.225 456.023 667.619 456.023C665.998 456.023 664.634 456.485 663.528 457.409C662.438 458.333 661.612 459.591 661.051 461.182C660.506 462.773 660.233 464.583 660.233 466.614C660.233 468.644 660.506 470.455 661.051 472.045C661.612 473.636 662.438 474.894 663.528 475.818C664.634 476.727 665.998 477.182 667.619 477.182ZM713.438 469.136V449.091H723.119V484H713.824V477.659H713.46C712.672 479.705 711.362 481.348 709.528 482.591C707.71 483.833 705.491 484.455 702.869 484.455C700.536 484.455 698.483 483.924 696.71 482.864C694.938 481.803 693.551 480.295 692.551 478.341C691.566 476.386 691.066 474.045 691.051 471.318V449.091H700.733V469.591C700.748 471.652 701.301 473.28 702.392 474.477C703.483 475.674 704.945 476.273 706.778 476.273C707.945 476.273 709.036 476.008 710.051 475.477C711.066 474.932 711.884 474.129 712.506 473.068C713.142 472.008 713.453 470.697 713.438 469.136ZM740.545 463.818V484H730.864V449.091H740.091V455.25H740.5C741.273 453.22 742.568 451.614 744.386 450.432C746.205 449.235 748.409 448.636 751 448.636C753.424 448.636 755.538 449.167 757.341 450.227C759.144 451.288 760.545 452.803 761.545 454.773C762.545 456.727 763.045 459.061 763.045 461.773V484H753.364V463.5C753.379 461.364 752.833 459.697 751.727 458.5C750.621 457.288 749.098 456.682 747.159 456.682C745.856 456.682 744.705 456.962 743.705 457.523C742.72 458.083 741.947 458.902 741.386 459.977C740.841 461.038 740.561 462.318 740.545 463.818ZM799.722 459.045L790.858 459.591C790.706 458.833 790.381 458.152 789.881 457.545C789.381 456.924 788.722 456.432 787.903 456.068C787.1 455.689 786.138 455.5 785.017 455.5C783.517 455.5 782.252 455.818 781.222 456.455C780.191 457.076 779.676 457.909 779.676 458.955C779.676 459.788 780.009 460.492 780.676 461.068C781.343 461.644 782.487 462.106 784.108 462.455L790.426 463.727C793.82 464.424 796.35 465.545 798.017 467.091C799.684 468.636 800.517 470.667 800.517 473.182C800.517 475.47 799.843 477.477 798.494 479.205C797.161 480.932 795.328 482.28 792.994 483.25C790.676 484.205 788.002 484.682 784.972 484.682C780.35 484.682 776.669 483.72 773.926 481.795C771.199 479.856 769.6 477.22 769.131 473.886L778.653 473.386C778.941 474.795 779.638 475.871 780.744 476.614C781.85 477.341 783.267 477.705 784.994 477.705C786.691 477.705 788.055 477.379 789.085 476.727C790.131 476.061 790.661 475.205 790.676 474.159C790.661 473.28 790.29 472.561 789.562 472C788.835 471.424 787.714 470.985 786.199 470.682L780.153 469.477C776.744 468.795 774.206 467.614 772.54 465.932C770.888 464.25 770.062 462.106 770.062 459.5C770.062 457.258 770.669 455.326 771.881 453.705C773.108 452.083 774.828 450.833 777.04 449.955C779.267 449.076 781.873 448.636 784.858 448.636C789.267 448.636 792.737 449.568 795.267 451.432C797.813 453.295 799.297 455.833 799.722 459.045ZM812.591 497.091C811.364 497.091 810.212 496.992 809.136 496.795C808.076 496.614 807.197 496.379 806.5 496.091L808.682 488.864C809.818 489.212 810.841 489.402 811.75 489.432C812.674 489.462 813.47 489.25 814.136 488.795C814.818 488.341 815.371 487.568 815.795 486.477L816.364 485L803.841 449.091H814.023L821.25 474.727H821.614L828.909 449.091H839.159L825.591 487.773C824.939 489.652 824.053 491.288 822.932 492.682C821.826 494.091 820.424 495.174 818.727 495.932C817.03 496.705 814.985 497.091 812.591 497.091ZM853.795 437.455V484H844.114V437.455H853.795Z" fill="white"/>
<path d="M457.914 445.156C444.819 445.111 431.724 445.067 418.628 445.022C417.401 445.018 416.175 445.014 414.948 445.009C414.981 435.472 415.013 425.935 415.046 416.398C415.062 411.613 415.079 406.828 415.095 402.043C415.1 400.449 413.754 399.089 412.156 399.083C404.017 399.055 395.879 399.027 387.74 399C386.146 398.995 384.786 400.341 384.78 401.939C384.735 415.034 384.69 428.129 384.646 441.225C384.642 442.452 384.638 443.678 384.634 444.905C375.097 444.872 365.56 444.84 356.023 444.807C351.238 444.791 346.453 444.774 341.668 444.758C340.073 444.753 338.714 446.099 338.708 447.697C338.68 455.836 338.652 463.974 338.625 472.113C338.622 473.017 338.956 473.705 339.465 474.18C339.938 474.713 340.636 475.069 341.565 475.072C354.66 475.117 367.755 475.162 380.851 475.206C382.078 475.21 383.304 475.214 384.531 475.219C384.498 484.756 384.466 494.293 384.433 503.83C384.417 508.615 384.4 513.4 384.384 518.185C384.379 519.779 385.725 521.139 387.323 521.144C395.462 521.172 403.6 521.2 411.739 521.227C412.643 521.23 413.331 520.896 413.806 520.387C414.34 519.914 414.695 519.216 414.698 518.287C414.743 505.192 414.788 492.097 414.832 479.001C414.836 477.774 414.84 476.548 414.845 475.321C424.382 475.354 433.919 475.386 443.456 475.419C448.241 475.435 453.026 475.452 457.811 475.468C459.405 475.473 460.765 474.127 460.771 472.529C460.799 464.39 460.827 456.252 460.854 448.113C460.859 446.522 459.512 445.162 457.914 445.156Z" fill="#6596C1"/>
<path d="M256.046 396.847L269.326 401.193L280.227 395.449L282.618 397.141L280.654 400.168L291.067 397.991L298.703 402.021L300.248 413.405L294.277 423.664L282.81 424L270.803 417.522L252.367 412.361L256.046 396.847Z" fill="#EACDB0"/>
<path d="M220.971 382.507C215.373 378.723 211.526 373.346 211.027 365.423C210.567 358.123 212.279 350.888 213.538 343.683C217.537 320.81 217.009 297.155 211.993 274.484C207.002 251.925 180.684 280.291 177.411 290.468C173.784 301.748 174.805 314.031 173.921 325.693C172.734 341.352 172.172 357.059 172.236 372.763C172.277 382.699 169.83 406.168 180.291 411.853C183.12 413.39 186.367 413.929 189.546 414.445C194.538 415.255 254.145 422.773 255.08 419.828C255.082 419.821 263.314 393.85 263.314 393.85C250.912 391.309 232.335 390.19 220.971 382.507Z" fill="#8AAD9F"/>
<path d="M703.564 356.421C704.061 352.025 707.689 348.458 711.824 346.889C715.96 345.32 720.532 345.421 724.932 345.871C730.241 346.415 735.5 347.437 740.626 348.921C743.572 349.774 746.546 350.819 748.903 352.782C751.259 354.745 752.908 357.807 752.435 360.837C752.111 362.914 750.865 364.714 749.654 366.432C748.796 367.649 747.859 368.93 746.472 369.473C745.307 369.929 744.006 369.791 742.763 369.645C734.234 368.648 701.989 370.351 703.564 356.421Z" fill="#8C9498"/>
<path d="M715.038 349.183C714.491 349.345 713.953 349.546 713.427 349.793C711.787 350.562 709.49 352.046 708.532 353.638C708.533 353.636 706.218 359.137 708.005 357.956L711.71 355.509L709.137 368.344L714.173 377.699L728.198 379.485L740.761 372.032C740.928 364.08 742.944 355.55 734.25 351.421C731.671 350.197 728.807 349.734 725.988 349.285C722.357 348.707 718.504 348.157 715.038 349.183Z" fill="#EACDB0"/>
<path d="M455.422 0.181476C433.223 -1.62652 405.291 10.2215 398.625 29.1755C391.959 10.2215 357.902 -1.44253 335.703 0.365474C277.122 5.13747 257.292 70.4655 282.129 114.397C295.497 138.042 314.707 158.716 335.666 177.279C353.217 192.824 398.486 225.794 398.624 225.682C398.762 225.794 444.032 192.824 461.582 177.279C482.541 158.715 501.751 138.042 515.119 114.397C539.958 70.4655 514.003 4.95248 455.422 0.181476Z" fill="#FF0000"/>
<g opacity="0.12">
<path d="M503.728 119.95C489.128 137.588 472.221 154.145 453.868 168.362C436.119 182.111 415.322 194.088 392.433 198.09C381.438 200.013 370.673 199.746 360.484 197.403C379.168 211.824 399.477 226.568 399.569 226.493C399.707 226.605 444.976 193.635 462.527 178.09C483.486 159.526 502.696 138.853 516.064 115.208C520.389 107.557 523.17 99.2516 524.511 90.7266C518.434 100.963 511.382 110.704 503.728 119.95Z" fill="black"/>
</g>
<path d="M502.759 101.381C487.419 101.77 472.079 102.159 456.739 102.549C451.188 82.4106 445.636 62.2715 440.085 42.1335C439.283 39.2225 434.957 39.4405 434.044 42.1335C422.168 77.1885 410.292 112.244 398.415 147.298C397.727 149.328 397.039 151.359 396.351 153.389C388.275 130.313 380.199 107.236 372.123 84.1595C370.828 80.4585 369.533 76.7575 368.237 73.0565C367.456 70.8255 363.775 69.9406 362.512 72.3526C356.642 83.5646 350.771 94.7756 344.901 105.987C327.734 105.987 310.568 105.987 293.401 105.987C289.37 105.987 289.363 111.883 293.401 111.883C311.214 111.883 329.028 111.883 346.841 111.883C347.883 111.883 349.068 111.335 349.545 110.423C354.576 100.815 359.606 91.2065 364.637 81.5995C372.922 105.275 381.207 128.949 389.493 152.624C390.788 156.325 392.083 160.026 393.379 163.727C394.351 166.503 398.464 166.548 399.42 163.727C411.296 128.672 423.172 93.6165 435.049 58.5625C435.617 56.8855 436.185 55.2086 436.753 53.5316C441.605 71.1346 446.458 88.7386 451.31 106.342C451.647 107.565 452.976 108.541 454.33 108.506C470.472 108.096 486.614 107.687 502.757 107.277C506.782 107.175 506.798 101.278 502.759 101.381Z" fill="white"/>
<path d="M1195.61 351.78C1218.66 351.78 1237.35 333.096 1237.35 310.048C1237.35 287 1218.66 268.316 1195.61 268.316C1172.57 268.316 1153.88 287 1153.88 310.048C1153.88 333.096 1172.57 351.78 1195.61 351.78Z" fill="#35383F"/>
<path d="M1222.51 320.159C1228.1 305.334 1220.61 288.787 1205.78 283.201C1190.96 277.615 1174.41 285.105 1168.83 299.93C1163.24 314.755 1170.73 331.302 1185.55 336.888C1200.38 342.474 1216.93 334.984 1222.51 320.159Z" fill="#E5DED6"/>
<path d="M1200.3 327.675L1189.13 327.109L1181.4 479.656L1192.57 480.222L1200.3 327.675Z" fill="#E5DED6"/>
<path d="M1205.14 311.559C1204.87 316.975 1200.25 321.143 1194.84 320.869C1189.42 320.595 1185.25 315.981 1185.53 310.565C1185.8 305.149 1190.42 300.981 1195.83 301.255C1201.25 301.53 1205.42 306.143 1205.14 311.559Z" fill="#35383F"/>
<g opacity="0.13">
<path d="M1200.75 319.252L1199.11 351.635C1199.11 351.635 1205.49 350.948 1208.95 349.603L1202.3 317.98L1200.75 319.252Z" fill="black"/>
</g>
<path d="M957.815 446.975C956.991 461.908 958.13 477.051 960.326 491.854C964.883 522.569 975.146 556.184 1003.85 579.506C1034.23 604.189 1086.75 610.639 1123.96 592.17C1159.48 574.535 1176.76 541.656 1186.6 511.31C1191.1 497.402 1194.2 483.193 1196.3 468.934C1197.4 461.465 1198.45 453.882 1198.59 446.347C1198.59 445.999 1198.62 445.65 1198.63 445.302C1198.88 435.437 1178.84 434.918 1178.58 444.799C1178.45 449.817 1177.95 454.837 1177.38 459.83C1176.76 465.261 1175.97 470.679 1175.02 476.078C1174.74 477.641 1174.45 479.202 1174.15 480.763C1174.11 480.937 1174.09 481.072 1174.07 481.177C1174.05 481.24 1174.04 481.311 1174.02 481.396C1173.83 482.302 1173.64 483.208 1173.45 484.112C1172.7 487.547 1171.88 490.972 1170.99 494.385C1167.09 509.248 1161.78 523.964 1154.1 537.921C1153.66 538.718 1153.21 539.511 1152.76 540.304C1153.39 539.19 1152.26 541.144 1151.95 541.657C1150.84 543.476 1149.68 545.278 1148.47 547.06C1146.2 550.409 1143.75 553.686 1141.09 556.858C1139.84 558.342 1138.55 559.802 1137.21 561.236C1136.58 561.91 1135.94 562.578 1135.29 563.239C1134.85 563.678 1134.41 564.11 1133.97 564.547C1133.84 564.683 1133.54 564.962 1133.32 565.171C1130.44 567.786 1127.41 570.293 1124.14 572.622C1122.52 573.771 1120.85 574.878 1119.13 575.936C1118.32 576.435 1117.49 576.912 1116.67 577.401C1118.9 576.076 1115.34 578.094 1114.76 578.389C1110.89 580.345 1106.8 582.05 1102.54 583.459C1102.11 583.601 1101.67 583.728 1101.24 583.877C1101.19 583.896 1101.14 583.913 1101.09 583.93C1101.07 583.936 1101.05 583.941 1101.03 583.947C1100.01 584.206 1099.01 584.494 1098 584.743C1095.59 585.335 1093.14 585.835 1090.66 586.243C1088.35 586.624 1086.02 586.892 1083.67 587.145C1083.52 587.162 1083.29 587.181 1083.06 587.197C1083.23 587.186 1083.44 587.173 1083.69 587.158C1083.34 587.18 1082.99 587.204 1082.64 587.226C1082.51 587.234 1082.44 587.239 1082.46 587.237C1082.35 587.243 1082.25 587.25 1082.15 587.255C1080.58 587.323 1079.02 587.397 1077.45 587.421C1071.94 587.504 1066.53 587.094 1061.06 586.601C1061.03 586.598 1061 586.595 1060.96 586.591C1060.45 586.519 1059.93 586.448 1059.42 586.371C1058.28 586.198 1057.14 586.008 1056 585.8C1053.31 585.307 1050.64 584.716 1048.02 584.024C1045.93 583.473 1043.92 582.813 1041.87 582.187C1041.82 582.173 1041.78 582.161 1041.74 582.148C1041.7 582.132 1041.66 582.116 1041.61 582.098C1041.19 581.929 1040.75 581.778 1040.32 581.613C1039.05 581.123 1037.79 580.608 1036.55 580.067C1034.71 579.265 1032.91 578.407 1031.15 577.498C1030.18 576.997 1029.23 576.479 1028.29 575.947C1027.8 575.673 1025.19 574.041 1025.82 574.476C1022.49 572.276 1019.34 569.957 1016.41 567.439C1015.01 566.233 1013.66 564.992 1012.35 563.722C1011.99 563.371 1010.2 561.499 1010.92 562.277C1010.23 561.538 1009.55 560.799 1008.89 560.047C1003.49 553.886 999.161 547.265 995.426 540.442C995.345 540.294 995.268 540.144 995.189 539.995C995.09 539.805 994.965 539.563 994.893 539.415C994.504 538.621 994.106 537.829 993.726 537.032C992.837 535.166 991.997 533.287 991.203 531.398C989.686 527.791 988.335 524.145 987.125 520.474C984.743 513.247 982.906 505.923 981.487 498.56C981.161 496.868 980.857 495.173 980.574 493.476C980.428 492.596 980.293 491.716 980.151 490.835C980.531 493.201 980.044 490.069 979.965 489.492C979.504 486.142 979.121 482.787 978.811 479.429C978.263 473.503 977.937 467.566 977.823 461.63C977.738 457.188 977.851 452.765 978.028 448.34C975.001 448.984 971.763 449.003 968.945 448.833C965.272 448.612 961.446 448.049 957.815 446.975ZM1060.9 586.584C1060.37 586.524 1059.48 586.388 1060.9 586.584ZM995.295 540.209C995.337 540.289 995.332 540.279 995.295 540.209Z" fill="#4080BB"/>
<path d="M939.094 217.723C927.901 217.156 916.708 216.588 905.515 216.021C903.127 215.9 900.994 217.821 900.873 220.215C899.582 245.697 898.29 271.179 896.999 296.662C896.817 300.257 896.635 303.851 896.452 307.446C896.164 313.132 905 313.589 905.288 307.894C906.579 282.412 907.871 256.93 909.162 231.447C909.27 229.325 909.377 227.203 909.485 225.081C919.205 225.574 928.925 226.066 938.645 226.559C944.332 226.847 944.789 218.011 939.094 217.723Z" fill="#E5DED6"/>
<path d="M952.516 231.408L940.938 230.821L941.833 213.148L953.411 213.735C956.777 213.906 959.367 216.773 959.197 220.139L958.919 225.623C958.748 228.989 955.882 231.579 952.516 231.408Z" fill="#35383F"/>
<path d="M942.246 232.268L932.008 231.749C928.118 231.552 925.125 228.239 925.322 224.349L925.643 218.012C925.84 214.123 929.153 211.129 933.043 211.326L943.281 211.845L942.246 232.268Z" fill="#E5DED6"/>
<path d="M1026.7 221.569C1037.89 222.136 1049.09 222.703 1060.28 223.271C1062.67 223.392 1064.6 225.519 1064.47 227.913C1063.18 253.395 1061.89 278.877 1060.6 304.359C1060.42 307.954 1060.24 311.548 1060.05 315.143C1059.77 320.829 1050.93 320.39 1051.22 314.695C1052.51 289.213 1053.8 263.731 1055.09 238.248C1055.2 236.126 1055.31 234.004 1055.41 231.882C1045.69 231.389 1035.97 230.897 1026.25 230.404C1020.57 230.117 1021.01 221.281 1026.7 221.569Z" fill="#E5DED6"/>
<path d="M1011.96 233.833L1023.54 234.42L1024.44 216.747L1012.86 216.16C1009.49 215.989 1006.63 218.58 1006.46 221.946L1006.18 227.43C1006.01 230.795 1008.6 233.662 1011.96 233.833Z" fill="#35383F"/>
<path d="M1022.1 235.724L1032.34 236.243C1036.23 236.44 1039.54 233.447 1039.74 229.557L1040.06 223.22C1040.26 219.33 1037.26 216.018 1033.37 215.82L1023.14 215.301L1022.1 235.724Z" fill="#E5DED6"/>
<g opacity="0.13">
<path d="M977.756 457.596C977.756 457.596 977.787 464.137 978.214 471.683L957.711 462.324L958.022 454.418L977.756 457.596Z" fill="black"/>
</g>
<path d="M893.351 307.979C891.592 323.978 891.875 340.396 893.187 356.404C895.514 384.797 901.785 415.936 921.376 437.812C942.109 460.965 979.005 467.576 1005.81 451.006C1031.4 435.185 1044.56 405.07 1052.38 377.199C1055.97 364.425 1058.57 351.357 1060.46 338.229C1061.46 331.352 1062.42 324.371 1062.73 317.42C1062.75 317.098 1062.77 316.778 1062.79 316.456C1063.25 307.359 1049.12 306.627 1048.65 315.74C1048.41 320.368 1047.91 324.992 1047.37 329.592C1046.77 334.594 1046.06 339.583 1045.23 344.551C1044.99 345.99 1044.73 347.426 1044.48 348.862C1044.14 350.764 1044.69 347.816 1044.37 349.445C1044.21 350.278 1044.05 351.112 1043.88 351.944C1043.26 355.103 1042.58 358.253 1041.85 361.39C1038.66 375.052 1034.49 388.562 1028.66 401.341C1028.29 402.154 1027.91 402.962 1027.53 403.771C1028.25 402.253 1027.29 404.259 1027.03 404.76C1026.2 406.424 1025.33 408.072 1024.43 409.701C1022.73 412.762 1020.9 415.754 1018.93 418.647C1018 420 1017.05 421.331 1016.06 422.637C1015.6 423.25 1015.13 423.859 1014.65 424.46C1014.33 424.859 1014 425.252 1013.68 425.65C1013.42 425.973 1012.36 427.179 1013.54 425.829C1011.33 428.346 1009.01 430.754 1006.5 432.976C1005.33 434.016 1004.12 435.016 1002.87 435.97C1002.28 436.421 1001.68 436.85 1001.09 437.29C1002.7 436.095 1000.13 437.913 999.71 438.177C996.923 439.933 993.987 441.454 990.937 442.7C990.631 442.825 990.314 442.937 990.01 443.069C988.433 443.752 991.499 442.615 989.854 443.131C989.132 443.358 988.419 443.61 987.693 443.828C985.973 444.344 984.229 444.774 982.467 445.12C980.824 445.443 979.172 445.66 977.51 445.865C977.074 445.919 975.793 445.986 977.521 445.877C977.159 445.9 976.795 445.933 976.432 445.947C975.323 445.99 974.217 446.039 973.106 446.041C969.214 446.048 965.405 445.602 961.558 445.078C961.212 445.031 960.18 444.804 961.766 445.125C961.313 445.033 960.859 444.943 960.407 444.845C959.605 444.671 958.806 444.482 958.011 444.276C956.122 443.787 954.257 443.208 952.425 442.537C950.967 442.003 949.562 441.368 948.133 440.765C946.526 440.087 949.479 441.513 947.956 440.68C947.661 440.519 947.356 440.374 947.059 440.217C946.173 439.749 945.299 439.258 944.439 438.743C943.163 437.98 941.916 437.166 940.703 436.305C940.034 435.83 939.375 435.341 938.726 434.838C938.336 434.536 935.942 432.485 937.449 433.834C935.007 431.649 932.703 429.345 930.587 426.84C929.632 425.709 928.713 424.548 927.83 423.36C927.554 422.989 926.044 420.801 927.134 422.424C926.578 421.596 926.023 420.768 925.49 419.925C921.855 414.174 918.991 408.011 916.553 401.67C916.429 401.348 916.312 401.023 916.192 400.7C916.781 402.289 916.343 401.118 916.206 400.717C915.954 399.979 915.696 399.244 915.451 398.504C914.877 396.772 914.339 395.028 913.833 393.275C912.867 389.928 912.018 386.548 911.27 383.146C909.798 376.449 908.713 369.669 907.925 362.859C907.744 361.294 907.578 359.726 907.428 358.158C907.35 357.345 907.28 356.53 907.206 355.717C907.406 357.904 907.153 355.009 907.113 354.475C906.885 351.379 906.712 348.279 906.59 345.177C906.375 339.703 906.317 334.223 906.409 328.745C906.516 322.35 906.961 316.003 907.393 309.628C907.414 309.318 907.452 309.007 907.486 308.698C907.904 304.894 904.434 301.456 900.775 301.271C896.764 301.065 893.771 304.164 893.351 307.979Z" fill="#4080BB"/>
<path d="M1045.42 397.986C1049.66 399.251 1052.53 403.451 1053.35 407.799C1054.16 412.147 1053.25 416.629 1052.03 420.881C1050.56 426.01 1048.63 431.007 1046.26 435.79C1044.9 438.539 1043.35 441.282 1041 443.255C1038.65 445.228 1035.35 446.31 1032.45 445.31C1030.46 444.624 1028.91 443.081 1027.43 441.585C1026.39 440.525 1025.29 439.377 1025 437.916C1024.76 436.689 1025.12 435.432 1025.49 434.235C1027.97 426.017 1031.99 393.978 1045.42 397.986Z" fill="#F2D263"/>
<path d="M1050.52 410.555C1050.46 409.988 1050.36 409.423 1050.21 408.861C1049.74 407.111 1048.69 404.588 1047.29 403.364C1047.29 403.366 1042.28 400.116 1043.13 402.083L1044.89 406.162L1032.71 401.363L1022.61 404.668L1018.38 418.157L1023.49 431.839C1031.29 433.407 1039.33 436.897 1044.93 429.069C1046.59 426.747 1047.55 424.01 1048.49 421.314C1049.7 417.843 1050.92 414.147 1050.52 410.555Z" fill="#EACDB0"/>
<path d="M910.877 421.955C907.007 424.097 901.997 423.208 898.322 420.746C894.647 418.284 892.08 414.5 889.897 410.653C887.264 406.012 885.049 401.133 883.289 396.095C882.277 393.2 881.406 390.17 881.64 387.112C881.874 384.054 883.415 380.936 886.158 379.565C888.039 378.625 890.227 378.598 892.329 378.59C893.819 378.584 895.405 378.606 896.651 379.421C897.698 380.106 898.339 381.247 898.941 382.344C903.069 389.874 923.142 415.166 910.877 421.955Z" fill="#F2D263"/>
<path d="M898.327 416.802C898.776 417.154 899.252 417.476 899.758 417.762C901.335 418.653 903.876 419.665 905.728 419.524C905.725 419.524 911.55 418.224 909.552 417.451L905.411 415.849L917.363 410.509L922.069 400.983L915.398 388.518L902.044 382.598C895.466 387.069 887.346 390.37 889.019 399.848C889.515 402.659 890.798 405.261 892.066 407.819C893.699 411.112 895.483 414.571 898.327 416.802Z" fill="#EACDB0"/>
</svg>
