<svg width="250" height="250" viewBox="0 0 250 250" fill="none" xmlns="http://www.w3.org/2000/svg">
<path d="M124.966 250.001C193.983 250.001 249.933 194.062 249.933 125.059C249.933 56.0555 193.983 0.117188 124.966 0.117188C55.9494 0.117188 0 56.0555 0 125.059C0 194.062 55.9494 250.001 124.966 250.001Z" fill="#FFEEEE"/>
<mask id="mask0_1343_739" style="mask-type:luminance" maskUnits="userSpaceOnUse" x="0" y="0" width="250" height="250">
<path d="M125.037 249.883C194.054 249.883 250.003 193.945 250.003 124.942C250.003 55.9383 194.054 0 125.037 0C56.0197 0 0.0703125 55.9383 0.0703125 124.942C0.0703125 193.945 56.0197 249.883 125.037 249.883Z" fill="white"/>
</mask>
<g mask="url(#mask0_1343_739)">
<path d="M170.294 249.885H77.2583C77.2515 249.718 77.3187 249.589 77.459 249.498C77.9991 249.221 78.5859 249.279 79.1598 249.279C108.904 249.274 138.649 249.274 168.393 249.279C168.967 249.279 169.554 249.22 170.095 249.496C170.235 249.588 170.302 249.718 170.294 249.885L170.294 249.885Z" fill="#C4C1BB"/>
<path d="M49.2482 249.883C49.2538 248.642 49.0542 247.391 49.4527 246.172C50.0177 246.786 49.7443 247.548 49.8148 248.248C49.869 248.786 49.8238 249.38 50.6495 249.298C58.6177 249.254 66.5832 249.285 74.5486 249.282C75.0088 249.281 75.476 249.268 75.902 249.498C76.0432 249.588 76.1071 249.716 76.0943 249.883H49.2482Z" fill="#C4C1BB"/>
<path d="M200.824 249.623C200.83 249.71 200.837 249.797 200.844 249.884H171.22C171.208 249.717 171.273 249.59 171.415 249.501C171.839 249.27 172.306 249.283 172.765 249.283C181.645 249.277 190.525 249.274 199.405 249.283C199.598 249.283 199.79 249.292 199.98 249.323C200.289 249.345 200.588 249.396 200.824 249.623Z" fill="#C4C1BB"/>
<path d="M76.1016 249.885C76.1028 249.825 76.1045 249.766 76.1063 249.706C76.1305 249.661 76.1547 249.617 76.1785 249.572C76.4589 249.392 76.7559 249.402 77.0607 249.494C77.1566 249.539 77.2196 249.613 77.2541 249.713C77.2572 249.77 77.2588 249.827 77.2588 249.885H76.1016Z" fill="#ACABAB"/>
<path d="M171.21 249.709C171.213 249.767 171.215 249.824 171.215 249.882H170.289C170.288 249.826 170.289 249.77 170.293 249.714C170.31 249.669 170.327 249.625 170.344 249.579C170.56 249.429 170.792 249.427 171.034 249.5C171.126 249.542 171.183 249.613 171.21 249.709Z" fill="#ABAAAA"/>
<path d="M200.825 249.622C200.602 249.624 200.38 249.627 200.158 249.63C199.594 248.325 199.72 246.919 199.625 245.559C199.511 243.947 199.592 242.322 199.598 240.703C199.617 235.771 199.278 230.857 198.944 225.94C198.353 217.254 197.287 208.617 196.412 199.961C196.242 198.277 196.229 196.573 196.182 194.887C196.063 190.605 195.611 186.357 195.153 182.111C194.629 177.249 194.209 172.37 193.351 167.547C192.377 162.07 191.104 156.675 188.999 151.505C187.118 146.882 184.149 143.119 180.021 140.305C175.633 137.313 170.884 135.057 165.896 133.227C161.537 131.627 156.947 130.88 152.579 129.355C151.811 129.087 151.561 129.508 151.285 130.083C150.057 132.632 148.711 135.154 146.515 136.981C141.585 141.082 136.16 144.181 129.476 143.972C126.064 143.866 122.773 142.92 119.597 141.695C115.379 140.068 111.241 138.285 107.946 135.013C106.181 133.259 104.682 131.321 103.455 129.168C103.182 128.689 103.039 128.165 103.352 127.631C103.513 127.397 103.816 127.325 103.978 127.091C103.808 127.263 103.581 127.353 103.383 127.487C100.56 128.634 97.5996 129.446 94.8751 130.809C88.7061 133.895 82.341 136.57 76.3207 139.977C69.1221 144.05 64.5724 150.141 61.9047 157.809C60.1995 162.71 59.288 167.788 58.4732 172.897C57.2958 180.281 56.2082 187.678 54.8824 195.039C54.2904 198.327 54.3165 201.714 53.7882 205.026C52.6159 212.374 52.2123 219.804 51.405 227.191C50.7331 233.341 51.0636 239.51 50.9571 245.671C50.934 247.001 50.9638 248.358 50.3987 249.62C49.4308 249.643 49.4412 249.643 49.4376 248.79C49.4339 247.917 49.5714 247.046 49.4603 246.172C49.5872 243.052 49.6619 239.93 49.6229 236.807C49.561 231.863 49.9868 226.954 50.5642 222.049C51.0325 218.069 51.3177 214.069 51.7631 210.087C52.1354 206.757 52.6348 203.442 53.0527 200.117C53.2448 198.589 53.3529 197.05 53.5404 195.521C54.0001 191.773 54.7874 188.077 55.3357 184.343C56.0294 179.618 56.7893 174.904 57.5901 170.196C58.5159 164.754 59.7722 159.408 62.0149 154.333C64.9039 147.795 69.236 142.554 75.5469 139.028C78.3374 137.469 81.1218 135.91 84.0408 134.598C86.0059 133.715 87.9583 132.798 89.8816 131.828C94.6405 129.428 99.6108 127.576 104.738 126.161C106.094 125.787 106.947 125.047 107.556 123.854C108.291 122.416 108.581 120.882 108.672 119.292C108.812 116.854 108.47 114.453 108.178 112.042C107.972 110.341 107.314 108.778 106.904 107.141C106.304 104.745 106.039 102.291 105.721 99.8479C105.643 99.2437 105.483 99.0457 104.808 99.0296C103.184 98.991 101.991 98.1011 101.153 96.7465C100.663 95.9548 100.4 95.0635 100.173 94.165C99.6077 91.9244 99.1145 89.6691 98.8761 87.3673C98.8208 86.834 98.7951 86.2845 98.8578 85.7544C99.0552 84.0821 99.7244 83.1516 101.316 82.2249C100.46 80.254 99.6006 78.2822 98.7473 76.3077C97.4705 73.3533 96.9487 70.2701 97.178 67.0596C97.2716 65.7482 97.5403 64.467 97.8945 63.2068C98.5499 60.8737 99.3017 58.5657 99.8939 56.2172C100.609 53.3803 102.347 51.5795 105.084 50.676C108.52 49.5419 111.921 48.3126 115.156 46.6789C117.158 45.6677 119.247 44.925 121.401 44.3111C123.794 43.6288 126.114 43.7045 128.412 44.6401C129.41 45.0462 130.42 45.4243 131.399 45.8705C133.955 47.0349 136.659 47.5824 139.427 47.8938C140.613 48.0273 141.799 48.1589 142.939 48.5526C144.688 49.1565 146.042 50.2265 146.94 51.8563C147.349 52.5981 147.76 53.3385 148.178 54.0753C148.72 55.032 149.44 55.8243 150.391 56.3888C153.768 58.3947 155.139 61.4689 155.247 65.28C155.355 69.0913 154.503 72.6896 153.044 76.1722C152.227 78.1237 151.288 80.0145 150.07 81.7611C152.114 82.7671 152.767 84.5999 152.875 86.5588C153.079 90.232 152.186 93.6627 149.988 96.6839C149.486 97.3744 148.871 97.9579 148.174 98.4538C147.336 99.0499 146.443 99.2671 145.444 98.8698C145.159 98.9996 145.157 99.2883 145.094 99.5439C145.021 99.8428 144.978 100.152 144.874 100.44C143.838 103.315 143.773 106.314 143.704 109.318C143.635 112.361 143.523 115.404 143.439 118.448C143.394 120.099 143.827 121.656 144.491 123.144C145.446 125.287 147.145 126.633 149.359 127.263C152.686 128.208 155.987 129.233 159.352 130.072C166.67 131.897 173.619 134.691 179.961 138.863C185.07 142.224 188.58 146.812 190.633 152.557C192.635 158.16 194.016 163.914 194.838 169.8C195.862 177.125 196.645 184.478 197.206 191.855C197.437 194.89 197.523 197.931 197.772 200.966C198.075 204.653 198.508 208.326 198.839 212.01C199.146 215.425 199.581 218.828 199.867 222.244C200.571 230.66 200.917 239.093 200.86 247.541C200.855 248.235 200.837 248.928 200.825 249.622L200.825 249.622Z" fill="#010101"/>
<path d="M50.3906 249.621C50.797 244.661 50.6228 239.692 50.643 234.725C50.6562 231.455 50.9289 228.203 51.2937 224.955C51.5079 223.048 51.5986 221.127 51.8226 219.221C52.0465 217.315 52.1165 215.395 52.4288 213.498C52.5842 212.553 52.6079 211.582 52.6685 210.629C52.7985 208.588 53.3115 206.612 53.5203 204.588C53.6856 202.985 53.9867 201.393 54.0792 199.788C54.2653 196.56 54.7374 193.381 55.3549 190.211C55.8756 187.539 56.34 184.855 56.6957 182.151C57.1107 178.996 57.7163 175.866 58.1784 172.716C58.5853 169.942 59.0492 167.18 59.674 164.448C60.6461 160.198 61.9052 156.043 63.9891 152.185C65.5886 149.224 67.4728 146.463 69.9611 144.164C71.8351 142.432 73.9562 141.036 76.1429 139.734C79.8886 137.504 83.8196 135.646 87.7924 133.865C89.3031 133.188 90.7667 132.405 92.2474 131.662C95.6616 129.947 99.2455 128.658 102.848 127.413C103.106 127.324 103.359 127.245 103.634 127.255C103.706 127.306 103.729 127.357 103.704 127.406C103.679 127.456 103.655 127.481 103.631 127.481C103.244 128.051 103.434 128.589 103.745 129.103C104.604 130.519 105.525 131.891 106.615 133.146C109.505 136.475 113.1 138.741 117.163 140.391C120.24 141.641 123.365 142.64 126.621 143.312C130.173 144.047 133.594 143.663 136.925 142.396C139.852 141.283 142.541 139.698 145.06 137.833C146.886 136.482 148.274 134.743 149.44 132.821C150.158 131.639 150.901 130.457 151.303 129.118C151.436 128.677 151.63 128.708 151.975 128.821C153.438 129.298 154.879 129.914 156.38 130.186C160.038 130.85 163.517 132.087 166.993 133.317C172.211 135.164 177.128 137.647 181.534 141.021C185.224 143.846 187.813 147.534 189.497 151.866C191.301 156.507 192.522 161.304 193.424 166.19C194.065 169.664 194.519 173.163 194.851 176.681C195.077 179.087 195.457 181.477 195.705 183.881C195.922 185.982 196.031 188.093 196.221 190.197C196.504 193.339 196.556 196.49 196.707 199.638C196.793 201.434 197.116 203.217 197.307 205.009C197.498 206.804 197.647 208.602 197.832 210.398C198.025 212.268 198.232 214.137 198.445 216.005C198.549 216.92 198.645 217.843 198.703 218.755C198.852 221.095 199.134 223.422 199.263 225.764C199.422 228.642 199.563 231.522 199.744 234.398C199.891 236.709 199.911 239.014 199.908 241.321C199.904 244.095 200.036 246.862 200.151 249.631C192.039 249.638 183.928 249.642 175.817 249.655C174.281 249.657 172.745 249.691 171.208 249.711L171.215 249.612C170.701 248.642 171.117 247.647 171.179 246.676C171.394 243.364 171.351 240.06 171.188 236.747C171.041 233.754 170.741 230.775 170.994 227.75C171.246 224.727 171.176 221.672 170.947 218.628C170.631 214.417 170.896 210.205 171.801 206.096C173.264 199.451 173.888 192.699 174.731 185.972C174.937 184.33 174.856 182.665 174.938 181.012C175.075 178.241 175.311 175.481 175.498 172.715C174.564 181.002 174.286 189.352 173.14 197.618C172.726 200.6 171.955 203.512 171.396 206.466C170.913 209.01 170.612 211.561 170.633 214.158C170.668 218.668 170.757 223.181 170.611 227.687C170.461 232.278 170.909 236.833 171.047 241.406C171.123 243.936 170.889 246.482 170.584 249.007C170.556 249.241 170.455 249.449 170.285 249.619L170.291 249.715C169.83 249.694 169.37 249.655 168.909 249.655C138.816 249.652 108.722 249.652 78.629 249.655C78.1682 249.655 77.7072 249.692 77.2464 249.711L77.2536 249.612C76.9119 249.196 77.0701 248.728 77.1325 248.28C78.2753 240.075 79.4789 231.865 80.0256 223.604C80.4129 217.752 81.3117 211.965 81.7157 206.126C81.9798 202.309 81.6115 198.505 81.1929 194.711C80.5004 188.436 79.6021 182.189 78.6901 175.944C79.6611 182.842 80.461 189.76 81.2414 196.681C81.8994 202.518 81.426 208.298 80.5301 214.065C80.0027 217.459 79.8979 220.887 79.6703 224.306C79.4578 227.499 78.9967 230.667 78.5515 233.833C77.8806 238.603 77.5428 243.416 76.7045 248.164C76.6108 248.695 76.6049 249.252 76.0952 249.601L76.0993 249.705C75.6394 249.687 75.1796 249.655 74.7197 249.654C67.0323 249.651 59.3451 249.653 51.6578 249.651C51.2356 249.651 50.8133 249.631 50.3912 249.62L50.3906 249.621Z" fill="#4E4534"/>
<path d="M76.1021 249.601C76.409 247.63 76.7343 245.662 77.0183 243.687C77.3625 241.294 77.5245 238.879 77.8829 236.486C78.1957 234.398 78.3965 232.294 78.6565 230.199C78.855 228.599 79.0915 227.005 79.2687 225.403C79.4253 223.989 79.4576 222.56 79.5119 221.144C79.6246 218.216 80.024 215.332 80.4298 212.44C81.0241 208.207 81.4794 203.951 81.1411 199.674C80.9296 196.999 80.6837 194.322 80.3126 191.658C79.9103 188.769 79.6649 185.859 79.3149 182.963C79.0665 180.906 78.7338 178.86 78.4906 176.803C78.406 176.088 78.477 175.355 78.477 174.512C79.0653 175.075 78.981 175.769 79.0755 176.356C79.5702 179.425 80.0238 182.5 80.4498 185.579C80.7391 187.67 80.917 189.777 81.221 191.866C81.6195 194.604 81.8585 197.361 82.053 200.114C82.2178 202.447 82.2275 204.802 81.957 207.151C81.7594 208.867 81.6387 210.593 81.4252 212.308C81.2261 213.908 81.0001 215.505 80.8283 217.107C80.6892 218.405 80.5423 219.71 80.5234 221.013C80.484 223.748 80.1718 226.454 79.8621 229.166C79.6183 231.302 79.4171 233.444 79.1098 235.572C78.5942 239.144 78.354 242.749 77.7765 246.314C77.5989 247.411 77.4121 248.51 77.2601 249.612C76.8733 249.671 76.4871 249.676 76.1016 249.601H76.1021Z" fill="#010101"/>
<path d="M170.287 249.618C170.427 247.433 170.573 245.249 170.7 243.064C170.736 242.449 170.756 241.829 170.711 241.216C170.51 238.455 170.437 235.687 170.226 232.93C170.12 231.535 170.265 230.174 170.267 228.798C170.274 224.02 170.303 219.241 170.254 214.463C170.222 211.29 170.666 208.183 171.295 205.09C171.785 202.684 172.339 200.288 172.746 197.868C173.032 196.168 173.107 194.433 173.297 192.716C173.474 191.115 173.687 189.517 173.868 187.916C173.998 186.772 174.202 185.625 174.195 184.481C174.183 182.36 174.37 180.251 174.497 178.142C174.611 176.231 174.927 174.33 175.208 172.432C175.268 172.028 175.297 171.503 175.829 171.27C175.829 172.18 175.932 173.05 175.811 173.887C175.419 176.593 175.473 179.329 175.2 182.042C175.127 182.768 175.165 183.505 175.161 184.237C175.151 186.28 174.823 188.289 174.549 190.306C174.342 191.827 174.128 193.351 174.028 194.88C173.849 197.612 173.308 200.282 172.774 202.953C172.155 206.041 171.576 209.121 171.379 212.281C171.257 214.246 171.138 216.214 171.281 218.16C171.492 221.01 171.378 223.855 171.445 226.701C171.465 227.556 171.26 228.383 171.241 229.227C171.178 231.922 171.493 234.6 171.607 237.285C171.74 240.433 171.863 243.593 171.504 246.746C171.396 247.697 171.339 248.658 171.217 249.61C170.907 249.613 170.597 249.615 170.287 249.618L170.287 249.618Z" fill="#010101"/>
<path d="M145.46 83.436C145.421 87.8282 145.275 92.2168 144.857 96.5918C144.565 99.6427 143.637 102.541 142.641 105.416C142.125 106.907 141.572 108.387 140.881 109.808C138.39 114.935 134.416 118.12 128.746 119.139C124.489 119.903 120.471 119.336 116.685 117.211C115.44 116.513 114.237 115.757 113.086 114.91C109.92 112.584 107.989 109.523 107.359 105.626C106.479 100.188 105.532 94.7573 105.357 89.2368C105.184 83.8119 105.782 78.4871 107.327 73.2545C108.368 69.7309 110.547 67.6911 114.154 67.0708C118.143 66.3847 122.131 65.7448 126.191 65.64C128.43 65.5823 130.617 65.0658 132.818 64.6857C134.492 64.3966 136.171 64.262 137.878 64.5048C140.653 64.8994 142.578 66.3455 143.553 68.9688C144.319 71.0318 144.807 73.1726 145.069 75.36C145.39 78.042 145.522 80.7342 145.46 83.436Z" fill="#FDCDAF"/>
<path d="M146.03 87.5042C145.97 85.8897 146.37 84.2951 146.225 82.6754C146.015 80.3465 145.997 78.0069 145.808 75.6736C145.61 73.2376 145.085 70.8981 144.297 68.6099C143.446 66.1399 141.709 64.5392 139.183 63.8932C137.415 63.441 135.602 63.4961 133.807 63.8035C131.581 64.1847 129.365 64.6315 127.133 64.9726C126.303 65.0995 125.437 65.0545 124.592 65.0072C122.465 64.8884 120.377 65.2399 118.291 65.5309C116.627 65.7631 114.95 65.9744 113.318 66.4085C112.348 66.6665 111.43 67.06 110.523 67.4815C109.001 68.1892 108.067 69.482 107.434 70.9351C106.328 73.4766 105.708 76.1707 105.242 78.9031C104.757 81.7485 104.557 84.6108 104.564 87.4924C104.565 87.633 104.607 87.788 104.415 87.9729C103.939 87.2515 103.743 86.4204 103.478 85.6561C102.355 82.4159 100.843 79.344 99.5073 76.1962C98.2091 73.1355 97.621 69.9471 97.8803 66.6323C97.9909 65.2178 98.4259 63.8508 98.8197 62.4892C99.4916 60.1655 100.231 57.8608 100.881 55.531C101.44 53.5266 102.84 52.3494 104.655 51.6209C106.544 50.8625 108.488 50.241 110.396 49.5284C111.982 48.9364 113.544 48.285 115.053 47.5121C117.564 46.2252 120.195 45.2477 122.971 44.7529C124.69 44.4466 126.414 44.5945 128.064 45.2944C129.974 46.1048 131.866 46.9692 133.849 47.5928C135.537 48.1233 137.273 48.3976 139.029 48.6074C140.583 48.7931 142.152 48.9419 143.592 49.6908C144.865 50.3529 145.845 51.2614 146.474 52.5536C146.743 53.1073 147.057 53.6392 147.328 54.1922C148.127 55.8207 149.585 56.7739 150.984 57.7899C152.927 59.2007 153.97 61.1315 154.341 63.482C154.479 64.3592 154.557 65.2286 154.561 66.1152C154.578 69.5578 153.661 72.7808 152.348 75.9246C151.425 78.1336 150.198 80.1579 148.946 82.1935C147.909 83.8787 146.824 85.5827 146.194 87.4985L146.114 87.573L146.03 87.504L146.03 87.5042Z" fill="#1F120C"/>
<path d="M109.166 112.247C112.23 115.956 116.119 118.412 120.732 119.685C124.816 120.811 128.846 120.308 132.756 118.866C135.421 117.883 137.531 116.089 139.278 113.862C140.817 111.9 141.858 109.674 142.758 107.371C143.33 107.427 143.03 107.805 143.018 108.076C142.878 111.426 142.71 114.775 142.607 118.126C142.545 120.158 142.959 122.113 143.902 123.93C144.829 125.714 146.273 126.939 148.116 127.71C148.329 127.799 148.549 127.871 148.767 127.948C150.72 128.633 150.704 128.624 149.739 130.534C147.896 134.183 145.244 137.038 141.625 138.987C139.522 140.12 137.452 141.307 135.149 142.015C131.757 143.058 128.397 142.802 124.995 141.994C121.221 141.098 117.631 139.715 114.18 138.008C110.072 135.977 106.916 132.847 104.563 128.916C104.052 128.064 104.057 128.028 104.941 127.52C107.687 125.942 108.92 123.485 109.25 120.42C109.53 117.822 109.217 115.267 108.928 112.703C108.867 112.477 108.719 112.207 109.167 112.247L109.166 112.247Z" fill="#FDCDAF"/>
<path d="M152.031 87.8799C151.98 90.0529 151.565 92.1502 150.642 94.1295C149.965 95.5833 149.026 96.831 147.661 97.7188C147.203 98.0169 146.725 98.2615 146.153 98.1669C145.728 98.0966 145.416 97.9058 145.508 97.4021C145.965 94.9033 145.553 92.3318 146.199 89.8407C146.825 87.4274 147.891 85.237 149.242 83.1634C149.52 82.7366 149.84 82.7386 150.216 82.9799C150.685 83.2802 150.987 83.7323 151.249 84.2028C151.883 85.3445 152.092 86.5833 152.031 87.8799Z" fill="#FDCDAF"/>
<path d="M99.4731 86.6579C99.4467 85.991 99.5416 85.3439 99.7357 84.7157C99.9207 84.117 100.235 83.592 100.75 83.209C101.426 82.7056 101.595 82.7325 101.901 83.508C102.788 85.7605 103.656 88.0209 104.525 90.2807C104.664 90.6407 104.72 91.0182 104.735 91.409C104.818 93.5258 105.084 95.6245 105.388 97.7192C105.485 98.389 105.417 98.4767 104.752 98.4047C103.627 98.2828 102.715 97.756 102.015 96.8661C101.704 96.4695 101.463 96.0301 101.3 95.5548C100.31 92.6665 99.785 89.6831 99.4727 86.6581L99.4731 86.6579Z" fill="#FDCDAF"/>
<path d="M143.019 108.075C142.871 107.862 143.081 107.518 142.759 107.369C142.746 107.048 142.863 106.796 143.158 106.598C143.258 107.129 143.27 107.614 143.019 108.075Z" fill="#80736A"/>
<path d="M103.633 127.478C103.632 127.403 103.633 127.327 103.637 127.252C103.816 127.01 104.053 126.875 104.46 126.852C104.299 127.291 103.899 127.305 103.633 127.478Z" fill="#282B27"/>
<path d="M109.165 112.245C108.965 112.334 109.018 112.555 108.926 112.7C108.863 112.569 108.769 112.442 108.746 112.304C108.721 112.149 108.602 111.896 108.849 111.858C109.043 111.829 109.119 112.063 109.165 112.245Z" fill="#8B7F70"/>
<path d="M146.031 87.5055C146.085 87.4952 146.14 87.4934 146.195 87.5C146.175 87.614 146.299 87.7823 146.074 87.8193C146.06 87.7147 146.046 87.61 146.031 87.5055Z" fill="#545959"/>
<path d="M104.635 88.4681C104.632 88.4937 104.639 88.5322 104.626 88.5421C104.603 88.5589 104.56 88.5721 104.537 88.5615C104.442 88.5168 104.447 88.467 104.548 88.4386C104.572 88.4318 104.606 88.4575 104.635 88.4681Z" fill="#232828"/>
</g>
</svg>
